<?xml version="1.0" ?><!-- Uploaded to: SVG Repo, www.svgrepo.com, Generator: SVG Repo Mixer Tools -->
<svg width="800px" height="800px" viewBox="0 0 64 64" data-name="Layer 1" id="Layer_1" xmlns="http://www.w3.org/2000/svg"><defs><style>.cls-1{fill:#190933;}</style></defs><title/><path class="cls-1" d="M18,6.5A1.5,1.5,0,1,0,16.5,5,1.5,1.5,0,0,0,18,6.5Zm0-2a.5.5,0,1,1-.5.5A.5.5,0,0,1,18,4.5Z"/><circle class="cls-1" cx="22" cy="5" r="1"/><circle class="cls-1" cx="14" cy="5" r="1"/><path class="cls-1" d="M39,32a4,4,0,1,0,4-4A4,4,0,0,0,39,32Zm6,0a2,2,0,1,1-2-2A2,2,0,0,1,45,32Z"/><path class="cls-1" d="M61,29h-.47a1,1,0,0,1-1-.8A16.92,16.92,0,0,0,57.4,23a1,1,0,0,1,.12-1.25l.33-.34a3,3,0,0,0,0-4.24,3,3,0,0,0-4.24,0l-.34.33A1,1,0,0,1,52,17.6a16.92,16.92,0,0,0-5.22-2.16,1,1,0,0,1-.8-1V14a3,3,0,0,0-6,0v.47a1,1,0,0,1-.8,1A17,17,0,0,0,35,17V5a5,5,0,0,0-5-5H6A5,5,0,0,0,1,5V8A1,1,0,0,0,0,9v4a1,1,0,0,0,1,1v3a1,1,0,0,0-1,1v4a1,1,0,0,0,1,1V59a5,5,0,0,0,5,5H30a5,5,0,0,0,5-5V47a17,17,0,0,0,4.2,1.58,1,1,0,0,1,.8,1V50a3,3,0,0,0,6,0v-.47a1,1,0,0,1,.8-1A16.92,16.92,0,0,0,52,46.4a1,1,0,0,1,1.25.12l.34.33a3,3,0,1,0,4.24-4.24l-.33-.34A1,1,0,0,1,57.4,41a16.92,16.92,0,0,0,2.16-5.22,1,1,0,0,1,1-.8H61a3,3,0,0,0,0-6ZM32,32.24a11,11,0,1,0,19.56-7.12,18.56,18.56,0,0,1,5.79,2.61c.09.3.18.61.25.92A3,3,0,0,0,60.53,31H61a1,1,0,0,1,0,2h-.47a3,3,0,0,0-2.92,2.35A14.85,14.85,0,0,1,55.7,40a3,3,0,0,0,.4,3.74l.34.33A1,1,0,1,1,55,45.44l-.33-.34A3,3,0,0,0,51,44.7a14.85,14.85,0,0,1-4.6,1.91A3,3,0,0,0,44,49.53V50a1,1,0,0,1-2,0v-.47a3,3,0,0,0-2.35-2.92,14.85,14.85,0,0,1-4.6-1.91,3,3,0,0,0-1.63-.47,3,3,0,0,0-1.4.36l-.11.06a3.24,3.24,0,0,0-.6.45l-.33.34a1,1,0,0,1-1.42,0,1.15,1.15,0,0,1-.21-.33.58.58,0,0,1,0-.18,1,1,0,0,1,0-.42s0-.11,0-.16a1.15,1.15,0,0,1,.21-.33l.34-.33a2.93,2.93,0,0,0,.76-1.3A3.07,3.07,0,0,0,30.3,40a14.23,14.23,0,0,1-1.05-2A18.36,18.36,0,0,1,32,32.24ZM52,32a9,9,0,1,1-9-9A9,9,0,0,1,52,32ZM39.65,17.39A3,3,0,0,0,42,14.47V14a1,1,0,0,1,2,0v.47a3,3,0,0,0,2.35,2.92A14.85,14.85,0,0,1,51,19.3a3,3,0,0,0,3.74-.4l.33-.34a1,1,0,0,1,1.71.71,1,1,0,0,1-.29.71l-.34.33a3,3,0,0,0-.4,3.74,14.36,14.36,0,0,1,1.11,2.13,19.65,19.65,0,0,0-6.5-2.38,11,11,0,0,0-18.19,6.64,19.56,19.56,0,0,0-3.44,6c-.11-.35-.21-.7-.29-1A3,3,0,0,0,25.47,33H25a1,1,0,0,1,0-2h.47a3,3,0,0,0,2.92-2.35,14.85,14.85,0,0,1,1.91-4.6,3.14,3.14,0,0,0,.47-1.45A3,3,0,0,0,30.39,21a2.88,2.88,0,0,0-.49-.67L29.56,20a1,1,0,0,1-.29-.71,1,1,0,0,1,.3-.71,1,1,0,0,1,1.41,0l.33.34a2.94,2.94,0,0,0,.6.45l.08,0a3,3,0,0,0,3.06-.1A14.85,14.85,0,0,1,39.65,17.39ZM6,2H30a3,3,0,0,1,3,2.5H30a4.34,4.34,0,0,0-3.35,1.65A3.45,3.45,0,0,1,24,7.5H12A3.45,3.45,0,0,1,9.35,6.15,4.34,4.34,0,0,0,6,4.5H3.05A3,3,0,0,1,6,2ZM33,59a3,3,0,0,1-3,3H6a3,3,0,0,1-3-3V5.5H6A3.45,3.45,0,0,1,8.65,6.85,4.34,4.34,0,0,0,12,8.5H24a4.34,4.34,0,0,0,3.35-1.65A3.45,3.45,0,0,1,30,5.5h3V17.67a.83.83,0,0,1-.27-.19l-.34-.33a3,3,0,0,0-5.12,2.12,2.88,2.88,0,0,0,.06.59,2.94,2.94,0,0,0,.82,1.53l.33.34a.91.91,0,0,1,.28.59,1,1,0,0,1-.16.66,16.92,16.92,0,0,0-2.16,5.22,1,1,0,0,1-1,.8H25a3,3,0,0,0,0,6h.47a1,1,0,0,1,1,.8,16.48,16.48,0,0,0,1.26,3.55A17.9,17.9,0,0,0,28.6,41a1,1,0,0,1,.16.66.91.91,0,0,1-.28.59l-.33.34a3.32,3.32,0,0,0-.38.46l0,.08a3.88,3.88,0,0,0-.24.45v0a3,3,0,0,0-.22,1.11,3.16,3.16,0,0,0,.21,1.1,0,0,0,0,1,0,0,3.21,3.21,0,0,0,.24.45s0,0,0,.07a3.4,3.4,0,0,0,.38.47l0,0a3,3,0,0,0,4.2,0l.34-.33s0,0,0,0a.81.81,0,0,1,.24-.17Z"/><circle class="cls-1" cx="57" cy="7" r="1"/><path class="cls-1" d="M63,6H61.9a5,5,0,0,0-.73-1.75L62,3.46a1,1,0,1,0-1.41-1.41l-.79.78A5,5,0,0,0,58,2.1V1a1,1,0,0,0-2,0V2.1a5,5,0,0,0-1.75.73l-.79-.78a1,1,0,1,0-1.41,1.41l.78.79A5,5,0,0,0,52.1,6H51a1,1,0,0,0,0,2h1.1a5,5,0,0,0,.73,1.75l-.78.79a1,1,0,0,0,0,1.41,1,1,0,0,0,.71.29,1,1,0,0,0,.7-.29l.79-.78A5,5,0,0,0,56,11.9V13a1,1,0,0,0,2,0V11.9a5,5,0,0,0,1.75-.73l.79.78a1,1,0,0,0,.7.29A1,1,0,0,0,62,12a1,1,0,0,0,0-1.41l-.78-.79A5,5,0,0,0,61.9,8H63a1,1,0,0,0,0-2Zm-6,4a3,3,0,1,1,3-3A3,3,0,0,1,57,10Z"/><circle class="cls-1" cx="57" cy="57" r="1"/><path class="cls-1" d="M63,56H61.9a5,5,0,0,0-.73-1.75l.78-.79a1,1,0,1,0-1.41-1.41l-.79.78A5,5,0,0,0,58,52.1V51a1,1,0,0,0-2,0v1.1a5,5,0,0,0-1.75.73l-.79-.78a1,1,0,1,0-1.41,1.41l.78.79A5,5,0,0,0,52.1,56H51a1,1,0,0,0,0,2h1.1a5,5,0,0,0,.73,1.75l-.78.79a1,1,0,0,0,0,1.41,1,1,0,0,0,.71.29,1,1,0,0,0,.7-.29l.79-.78A5,5,0,0,0,56,61.9V63a1,1,0,0,0,2,0V61.9a5,5,0,0,0,1.75-.73l.79.78a1,1,0,0,0,.7.29A1,1,0,0,0,62,62a1,1,0,0,0,0-1.41l-.78-.79A5,5,0,0,0,61.9,58H63a1,1,0,0,0,0-2Zm-6,4a3,3,0,1,1,3-3A3,3,0,0,1,57,60Z"/><path class="cls-1" d="M18,44a5,5,0,0,1,2.69.79,1,1,0,0,0,1.07-1.69,7,7,0,0,0-9.66,9.66,1,1,0,0,0,.85.47,1,1,0,0,0,.53-.16,1,1,0,0,0,.31-1.38A5,5,0,0,1,18,44Z"/><path class="cls-1" d="M23.39,46.18a1,1,0,0,0-.64,1.26A4.9,4.9,0,0,1,23,49a5,5,0,0,1-5,5,4.9,4.9,0,0,1-1.56-.25,1,1,0,0,0-.62,1.9,7,7,0,0,0,8.83-8.83A1,1,0,0,0,23.39,46.18Z"/><path class="cls-1" d="M15.5,49A2.5,2.5,0,1,0,18,46.5,2.5,2.5,0,0,0,15.5,49Zm4,0A1.5,1.5,0,1,1,18,47.5,1.5,1.5,0,0,1,19.5,49Z"/></svg>