<?xml version="1.0" ?><svg id="Layer_1" style="enable-background:new 0 0 96 96;" version="1.1" viewBox="0 0 96 96" xml:space="preserve" xmlns="http://www.w3.org/2000/svg" xmlns:xlink="http://www.w3.org/1999/xlink"><style type="text/css">
	.st0{fill-rule:evenodd;clip-rule:evenodd;fill:#5C6061;}
	.st1{fill-rule:evenodd;clip-rule:evenodd;fill:#56ADD9;}
	.st2{fill-rule:evenodd;clip-rule:evenodd;fill:#2B2D2D;}
	.st3{fill-rule:evenodd;clip-rule:evenodd;fill:#414042;}
</style><g id="XMLID_2_"><g id="XMLID_8_"><path class="st0" d="M24,0h48c2.2,0,4,1.8,4,4v88c0,2.2-1.8,4-4,4H24c-2.2,0-4-1.8-4-4V4C20,1.8,21.8,0,24,0L24,0z     M24,12v72h48V12H24z" id="XMLID_13_"/><rect class="st1" height="72" id="XMLID_12_" width="48" x="24" y="12"/><path class="st2" d="M42,4h12c1.1,0,2,0.9,2,2v0c0,1.1-0.9,2-2,2H42c-1.1,0-2-0.9-2-2v0C40,4.9,40.9,4,42,4z" id="XMLID_11_"/><path class="st2" d="M32,8c1.1,0,2-0.9,2-2c0-1.1-0.9-2-2-2c-1.1,0-2,0.9-2,2C30,7.1,30.9,8,32,8z" id="XMLID_10_"/><path class="st2" d="M44,88h8c1.1,0,2,0.9,2,2v0c0,1.1-0.9,2-2,2h-8c-1.1,0-2-0.9-2-2v0C42,88.9,42.9,88,44,88z" id="XMLID_9_"/></g><path class="st3" d="M42.3,44c1.4,0.2,2.7,0.8,3.8,1.6l1.9-1.9c0.2-0.2,0.4-0.2,0.6,0l1.6,1.6c0.2,0.2,0.2,0.4,0,0.6   l-1.9,1.9c0.8,1.1,1.3,2.4,1.6,3.8h2.7c0.2,0,0.4,0.2,0.4,0.4v2.2c0,0.2-0.2,0.4-0.4,0.4h-2.7c-0.2,1.4-0.8,2.7-1.6,3.8l1.9,1.9   c0.2,0.2,0.2,0.4,0,0.6l-1.6,1.6c-0.2,0.2-0.4,0.2-0.6,0L46,60.4c-1.1,0.8-2.4,1.3-3.8,1.6v2.7c0,0.2-0.2,0.4-0.4,0.4h-2.2   c-0.2,0-0.4-0.2-0.4-0.4v-2.7c-1.4-0.2-2.7-0.8-3.8-1.6l-1.9,1.9c-0.2,0.2-0.4,0.2-0.6,0l-1.6-1.6c-0.2-0.2-0.2-0.4,0-0.6l1.9-1.9   c-0.8-1.1-1.3-2.4-1.6-3.8l-2.7,0c-0.2,0-0.4-0.2-0.4-0.4v-2.2c0-0.2,0.2-0.4,0.4-0.4h2.7c0.2-1.4,0.8-2.7,1.6-3.8l-1.9-1.9   c-0.2-0.2-0.2-0.4,0-0.6l1.6-1.6c0.2-0.2,0.4-0.2,0.6,0l1.9,1.9c1.1-0.8,2.4-1.3,3.8-1.6v-2.8c0-0.2,0.2-0.4,0.4-0.4h2.2   c0.2,0,0.4,0.2,0.4,0.4V44L42.3,44z M40.8,49c-2.2,0-3.9,1.8-3.9,3.9c0,2.2,1.8,3.9,3.9,3.9c2.2,0,3.9-1.8,3.9-3.9   C44.7,50.8,42.9,49,40.8,49L40.8,49z M58.4,33.4l-0.1-2.2c0-0.2-0.2-0.3-0.3-0.3L56.2,31c-0.2,0-0.3,0.2-0.3,0.3l0.1,2.2   c-1.1,0.3-2.1,0.7-2.9,1.4l-1.6-1.5c-0.1-0.1-0.3-0.1-0.5,0l-1.2,1.3c-0.1,0.1-0.1,0.3,0,0.5l1.6,1.5c-0.6,0.9-0.9,2-1.1,3.1   L48.3,40c-0.2,0-0.3,0.2-0.3,0.3l0.1,1.8c0,0.2,0.2,0.3,0.3,0.3l2.2-0.1c0.3,1.1,0.7,2.1,1.4,2.9l-1.4,1.6c-0.1,0.1-0.1,0.3,0,0.5   l1.3,1.2c0.1,0.1,0.3,0.1,0.5,0l1.4-1.6c0.9,0.6,2,0.9,3.1,1.1L57,50c0,0.2,0.2,0.3,0.3,0.3l1.8-0.1c0.2,0,0.3-0.2,0.3-0.3   l-0.1-2.2c1.1-0.3,2.1-0.8,2.9-1.4l1.6,1.4c0.1,0.1,0.3,0.1,0.5,0l1.2-1.3c0.1-0.1,0.1-0.3,0-0.5l-1.6-1.4c0.6-0.9,0.9-2,1.1-3.1   l2.2-0.1c0.2,0,0.3-0.2,0.3-0.3l-0.1-1.8c0-0.2-0.2-0.3-0.3-0.3L64.8,39c-0.3-1.1-0.8-2.1-1.4-2.9l1.5-1.6c0.1-0.1,0.1-0.3,0-0.5   l-1.3-1.2c-0.1-0.1-0.3-0.1-0.5,0l-1.5,1.6C60.6,33.9,59.5,33.5,58.4,33.4L58.4,33.4z M57.5,37.5c1.7-0.1,3.2,1.2,3.3,2.9   c0.1,1.7-1.2,3.2-2.9,3.3c-1.7,0.1-3.2-1.2-3.3-2.9C54.4,39.1,55.8,37.6,57.5,37.5z" id="XMLID_3_"/></g></svg>